<svg width="33" height="35" viewBox="0 0 33 35" fill="none" xmlns="http://www.w3.org/2000/svg">
<path d="M12.3676 28.5C4.86761 30.75 4.86761 24.75 1.86761 24M22.8676 33V27.195C22.9239 26.4797 22.8272 25.7607 22.5841 25.0857C22.341 24.4107 21.957 23.7951 21.4576 23.28C26.1676 22.755 31.1176 20.97 31.1176 12.78C31.1172 10.6857 30.3117 8.6718 28.8676 7.155C29.5514 5.32276 29.5031 3.29752 28.7326 1.5C28.7326 1.5 26.9626 0.974998 22.8676 3.72C19.4296 2.78823 15.8056 2.78823 12.3676 3.72C8.27261 0.974998 6.50261 1.5 6.50261 1.5C5.73218 3.29752 5.68383 5.32276 6.36761 7.155C4.91281 8.68305 4.1064 10.7152 4.11761 12.825C4.11761 20.955 9.06761 22.74 13.7776 23.325C13.2841 23.835 12.9035 24.4431 12.6606 25.1099C12.4176 25.7766 12.3178 26.4871 12.3676 27.195V33" stroke="#9D90DA" stroke-width="3" stroke-linecap="round" stroke-linejoin="round"/>
</svg>
