<svg width="34" height="32" viewBox="0 0 34 32" fill="none" xmlns="http://www.w3.org/2000/svg">
<path d="M22.8676 11C25.2546 11 27.5437 11.9482 29.2316 13.636C30.9194 15.3239 31.8676 17.6131 31.8676 20V30.5H25.8676V20C25.8676 19.2044 25.5515 18.4413 24.9889 17.8787C24.4263 17.3161 23.6633 17 22.8676 17C22.072 17 21.3089 17.3161 20.7463 17.8787C20.1837 18.4413 19.8676 19.2044 19.8676 20V30.5H13.8676V20C13.8676 17.6131 14.8158 15.3239 16.5037 13.636C18.1915 11.9482 20.4807 11 22.8676 11Z" stroke="#BD84A5" stroke-width="3" stroke-linecap="round" stroke-linejoin="round"/>
<path d="M7.86761 12.5H1.86761V30.5H7.86761V12.5Z" stroke="#BD84A5" stroke-width="3" stroke-linecap="round" stroke-linejoin="round"/>
<path d="M4.86761 8C6.52447 8 7.86761 6.65685 7.86761 5C7.86761 3.34315 6.52447 2 4.86761 2C3.21076 2 1.86761 3.34315 1.86761 5C1.86761 6.65685 3.21076 8 4.86761 8Z" stroke="#BD84A5" stroke-width="3" stroke-linecap="round" stroke-linejoin="round"/>
</svg>
